# xmcd
#
# Track frame offsets:
#	150
#	11584
#	29508
#	41937
#	59077
#	75683
#	91850
#	103829
#	120403
#	136170
#	147017
#	160292
#	171679
#
# Disc length: 2505 seconds
# Revision: 0
# Processed by: cddbd v1.5.2PL0 Copyright (c) Steve Scherf et al.
# Submitted via: dBpowerAMP V12.0
#
DISCID=b409c70d
DTITLE=Blue Roots Bluegrass Band - Takin' Root
DYEAR=2007
DGENRE=Bluegrass
TTITLE0=Hello Trouble
TTITLE1=Ooh Las Vegas
TTITLE2=NaCl Creek
TTITLE3=Make My Grave in the Red Clay
TTITLE4=One of These Trains
TTITLE5=To Love Somebody
TTITLE6=Ain't No Way of Knowing
TTITLE7=Blue Trail of Sorrow
TTITLE8=Don't Think Twice It's All Right
TTITLE9=Fireball eMail
TTITLE10=Have You Come to Say Goodbye
TTITLE11=Blue Days Black Nights
TTITLE12=Farewell Blues
EXTD=
EXTT0=
EXTT1=
EXTT2=
EXTT3=
EXTT4=
EXTT5=
EXTT6=
EXTT7=
EXTT8=
EXTT9=
EXTT10=
EXTT11=
EXTT12=
PLAYORDER=
